<svg xmlns="http://www.w3.org/2000/svg" xmlns:xlink="http://www.w3.org/1999/xlink" viewBox="0 0 484.97 502.14">
  <defs>
    <linearGradient id="a" x1="71.67" y1="520.31" x2="-16.87" y2="385.97" gradientTransform="translate(184.69 -293.76)" gradientUnits="userSpaceOnUse">
      <stop offset="0" stop-color="#fff"/>
      <stop offset="1"/>
    </linearGradient>
    <linearGradient id="b" x1="4.02" y1="370.67" x2="4.04" y2="506.67" gradientTransform="translate(233.89 -381.72)" xlink:href="#a"/>
    <linearGradient id="c" x1="71.79" y1="510.86" x2="71.79" y2="659.88" gradientTransform="translate(166.13 -193.11)" xlink:href="#a"/>
    <linearGradient id="d" x1="-40.1" y1="517.45" x2="140.62" y2="517.45" gradientTransform="translate(200.91 -281.2)" xlink:href="#a"/>
    <linearGradient id="e" x1="-43.53" y1="459.91" x2="-43.53" y2="635.26" gradientTransform="translate(178.84 -282.97)" xlink:href="#a"/>
    <linearGradient id="f" x1="-53.57" y1="446.85" x2="-53.55" y2="622.19" gradientTransform="translate(172.6 -269.89)" xlink:href="#a"/>
    <linearGradient id="g" x1="56.27" y1="459.91" x2="56.27" y2="635.26" gradientTransform="translate(284.26 -282.97)" xlink:href="#a"/>
    <linearGradient id="h" x1="62.06" y1="446.84" x2="62.06" y2="622.18" gradientTransform="translate(294.73 -269.89)" xlink:href="#a"/>
    <linearGradient id="i" x1="-86.89" y1="666.39" x2="-86.89" y2="469.59" gradientTransform="translate(133.94 -187.33)" xlink:href="#a"/>
    <linearGradient id="j" x1="-98.69" y1="687.83" x2="-98.69" y2="491.03" gradientTransform="translate(131.74 -208.75)" xlink:href="#a"/>
    <linearGradient id="k" x1="-91.51" y1="685.17" x2="-91.51" y2="488.37" gradientTransform="translate(139.51 -206.11)" xlink:href="#a"/>
    <linearGradient id="l" x1="-103.12" y1="680.12" x2="-103.1" y2="483.32" gradientTransform="translate(127.08 -201.07)" xlink:href="#a"/>
    <linearGradient id="m" x1="-9.86" y1="368.61" x2="-9.86" y2="504.61" gradientTransform="translate(216.42 -379.66)" xlink:href="#a"/>
    <linearGradient id="n" x1="98.76" y1="666.39" x2="98.76" y2="469.59" gradientTransform="translate(330.02 -187.33)" xlink:href="#a"/>
    <linearGradient id="o" x1="100.57" y1="687.83" x2="100.57" y2="491.03" gradientTransform="translate(342.21 -208.75)" xlink:href="#a"/>
    <linearGradient id="p" x1="93.21" y1="685.17" x2="93.21" y2="488.37" gradientTransform="translate(334.63 -206.11)" xlink:href="#a"/>
    <linearGradient id="q" x1="104.99" y1="680.14" x2="104.99" y2="483.35" gradientTransform="translate(346.88 -201.07)" xlink:href="#a"/>
    <linearGradient id="r" x1="-31.47" y1="615.51" x2="-31.45" y2="503.07" gradientTransform="translate(170.59 -210.41)" xlink:href="#a"/>
    <linearGradient id="s" x1="64.63" y1="615.53" x2="64.63" y2="503.08" gradientTransform="translate(272.08 -210.41)" xlink:href="#a"/>
    <linearGradient id="t" x1="20.64" y1="368.61" x2="20.64" y2="504.61" gradientTransform="translate(248.64 -379.66)" xlink:href="#a"/>
    <linearGradient id="u" x1="13.89" y1="456.97" x2="13.89" y2="517.07" gradientTransform="translate(223.94 -327.75)" xlink:href="#a"/>
    <linearGradient id="v" x1="53.1" y1="529.87" x2="-35.42" y2="395.53" gradientTransform="translate(188.76 -293.76)" xlink:href="#a"/>
    <linearGradient id="w" x1="103.84" y1="590.41" x2="103.84" y2="522.31" gradientTransform="translate(339.86 -258.47)" xlink:href="#a"/>
    <linearGradient id="x" x1="77.99" y1="588.62" x2="78.01" y2="512.93" gradientTransform="translate(313.56 -232.79)" xlink:href="#a"/>
    <linearGradient id="y" x1="80.72" y1="515.17" x2="80.74" y2="578.15" gradientTransform="translate(320.16 -273.59)" xlink:href="#a"/>
    <linearGradient id="z" x1="91.69" y1="517.36" x2="91.71" y2="580.32" gradientTransform="translate(330.9 -275.77)" xlink:href="#a"/>
    <clipPath id="aa" transform="translate(4.56 0.43)">
      <path d="M237.92,479.28c90.26,0,161.73-13.5,177.75-16.77a4,4,0,0,1,2.1.1c20.61,6.34,47.13-7.49,55.91-37.8,6.72-23.23-1.08-50.27-24.36-57.14-11.26-3.27-22.37-.66-31.77,5.59a4.18,4.18,0,0,1-5.05-.26q-2.88-2.37-5.73-4.47a4.25,4.25,0,0,1-.76-6.09c20.4-25.1,7.52-62,10.53-62.67,2.1-.46,2.1,15.14,17,19.59,18.6,5.56,39.45-16.36,36.31-38.6-5.29-37.48-54-47.24-82.29-26.61a4.23,4.23,0,0,1-6.49-2A152.46,152.46,0,0,0,345.66,197a4.19,4.19,0,0,1-.68-5.1,119.67,119.67,0,0,0,12.56-86.79,4.08,4.08,0,0,1,0-2.11c3.07-11,14.4-52.89,15.17-77.76.3-9.84-.83-25.11-13.87-25.37C342.15-.43,307,16.29,293.62,23a4.11,4.11,0,0,1-3.68.06,124.31,124.31,0,0,0-104,0,4.11,4.11,0,0,1-3.68-.06C168.88,16.29,133.69-.43,117-.1c-13,.26-14.18,15.53-13.87,25.37.77,24.87,12.1,66.79,15.17,77.76a4,4,0,0,1,0,2.11,120.15,120.15,0,0,0-3.18,27.48,118.84,118.84,0,0,0,15.75,59.31,4.19,4.19,0,0,1-.68,5.1c-41.34,41.51-54.61,99.8-35.71,152.11a4.23,4.23,0,0,1-2.13,5.26,148.19,148.19,0,0,0-29,18.6,4.18,4.18,0,0,1-5.05.26c-9.4-6.25-20.51-8.86-31.77-5.59C3.24,374.54-4.56,401.58,2.16,424.81c8.78,30.31,35.3,44.14,55.91,37.8a4,4,0,0,1,2.1-.1c16,3.27,87.49,16.77,177.75,16.77" style="fill: none"/>
    </clipPath>
    <linearGradient id="ab" x1="242.48" y1="531.94" x2="242.48" y2="-453.95" gradientUnits="userSpaceOnUse">
      <stop offset="0" stop-color="#111d5e"/>
      <stop offset="1" stop-color="#5a46bd"/>
    </linearGradient>
    <clipPath id="ac" transform="translate(4.56 0.43)">
      <path d="M134.32,67.61a121.6,121.6,0,0,1,18.05-21.77,4.26,4.26,0,0,0-.29-6.39c-13.18-10.52-35.14-23.32-32.5-1.76a110.52,110.52,0,0,0,7.23,29.17,4.24,4.24,0,0,0,7.51.75" style="fill: none"/>
    </clipPath>
    <linearGradient id="ad" x1="139.9" y1="17.78" x2="139.9" y2="59.46" gradientUnits="userSpaceOnUse">
      <stop offset="0" stop-color="#be4e01"/>
      <stop offset="1" stop-color="#f37121"/>
    </linearGradient>
    <clipPath id="ae" transform="translate(4.56 0.43)">
      <path d="M323.47,45.84a121.6,121.6,0,0,1,18,21.77,4.24,4.24,0,0,0,7.51-.75,110.52,110.52,0,0,0,7.23-29.17c2.64-21.56-19.32-8.76-32.5,1.76a4.26,4.26,0,0,0-.29,6.39" style="fill: none"/>
    </clipPath>
    <linearGradient id="af" x1="345.07" y1="17.78" x2="345.07" y2="59.46" xlink:href="#ad"/>
    <clipPath id="ag" transform="translate(4.56 0.43)">
      <path d="M239.18,428.9c125.59,0,227.4,16.3,227.4,36.41s-101.81,36.4-227.4,36.4-227.4-16.3-227.4-36.4,101.81-36.41,227.4-36.41" style="fill: none"/>
    </clipPath>
    <linearGradient id="ah" x1="243.74" y1="519.89" x2="243.74" y2="-354.35" xlink:href="#ab"/>
    <clipPath id="ai" transform="translate(4.56 0.43)">
      <path d="M237.92,25.61c-59.07,0-107.67,48.07-107.67,107s51.06,103.79,107.67,103.79,107.67-44.85,107.67-103.79-48.61-107-107.67-107" style="fill: none"/>
    </clipPath>
    <linearGradient id="aj" x1="242.48" y1="229.72" x2="242.48" y2="12.03" gradientUnits="userSpaceOnUse">
      <stop offset="0" stop-color="#f37121"/>
      <stop offset="1" stop-color="#ffbd69"/>
    </linearGradient>
    <mask id="ak" x="134.81" y="92.23" width="169.93" height="144.61" maskUnits="userSpaceOnUse">
      <g transform="translate(4.56 0.43)">
        <rect x="130.25" y="91.8" width="169.93" height="144.61" style="fill: url(#a)"/>
      </g>
    </mask>
    <mask id="al" x="230.59" y="26.04" width="23.79" height="39.58" maskUnits="userSpaceOnUse">
      <g transform="translate(4.56 0.43)">
        <rect x="226.02" y="25.61" width="23.79" height="39.58" style="fill: url(#b)"/>
      </g>
    </mask>
    <mask id="am" x="196.58" y="28.59" width="29.09" height="41.04" maskUnits="userSpaceOnUse">
      <g transform="translate(4.56 0.43)">
        <rect x="192.01" y="28.16" width="29.09" height="41.04" style="fill: url(#m)"/>
      </g>
    </mask>
    <mask id="an" x="259.3" y="28.59" width="29.09" height="41.04" maskUnits="userSpaceOnUse">
      <g transform="translate(4.56 0.43)">
        <rect x="254.73" y="28.16" width="29.09" height="41.04" style="fill: url(#t)"/>
      </g>
    </mask>
    <mask id="ao" x="211.22" y="135.46" width="62.36" height="35.21" maskUnits="userSpaceOnUse">
      <g transform="translate(4.56 0.43)">
        <rect x="206.65" y="135.03" width="62.36" height="35.21" style="fill: url(#u)"/>
      </g>
    </mask>
    <mask id="ap" x="142.73" y="167.38" width="162.01" height="69.46" maskUnits="userSpaceOnUse">
      <g transform="translate(4.56 0.43)">
        <rect x="138.16" y="166.95" width="162.01" height="69.46" style="fill: url(#v)"/>
      </g>
    </mask>
    <clipPath id="aq" transform="translate(4.56 0.43)">
      <path d="M384,354.65c-.17-.08-.35-.16-.51-.25a4.23,4.23,0,0,1-2.14-5.26,140.81,140.81,0,0,0,6.4-71.87,4.13,4.13,0,0,1,.67-3.11c15.3-22.43,62.26-21.12,66.46,8.67,1.79,12.64-10.25,24.07-17,22.05-6.43-1.93-4.87-12.38-12.29-20.13-9.94-10.38-27-5.24-24.69,15.84,1.64,14.86,3.68,39-12.14,53.4a4.18,4.18,0,0,1-4.73.66" style="fill: none"/>
    </clipPath>
    <linearGradient id="ar" x1="392.26" y1="357.64" x2="472.04" y2="219.48" xlink:href="#aj"/>
    <mask id="as" x="436.88" y="264.28" width="22.76" height="41.26" maskUnits="userSpaceOnUse">
      <g transform="translate(4.56 0.43)">
        <rect x="432.32" y="263.85" width="22.76" height="41.26" style="fill: url(#w)"/>
      </g>
    </mask>
    <mask id="at" x="385.68" y="287.87" width="20.87" height="67.67" maskUnits="userSpaceOnUse">
      <g transform="translate(4.56 0.43)">
        <rect x="381.12" y="287.44" width="20.87" height="67.67" style="fill: url(#x)"/>
      </g>
    </mask>
    <mask id="au" x="398.53" y="261.23" width="13.83" height="14.89" maskUnits="userSpaceOnUse">
      <g transform="translate(4.56 0.43)">
        <rect x="393.97" y="260.79" width="13.83" height="14.89" style="fill: url(#y)"/>
      </g>
    </mask>
    <mask id="av" x="419.44" y="259.17" width="15.44" height="12.69" maskUnits="userSpaceOnUse">
      <g transform="translate(4.56 0.43)">
        <rect x="414.88" y="258.74" width="15.44" height="12.69" style="fill: url(#z)"/>
      </g>
    </mask>
    <clipPath id="aw" transform="translate(4.56 0.43)">
      <path d="M394.22,451.12c-100.41,17.26-212.19,17.26-312.61,0a4.25,4.25,0,0,1-3-6.18c9.25-17.41,5.88-39.68-4.88-56a4.24,4.24,0,0,1,.89-5.66,131.74,131.74,0,0,1,23.75-15.05,4.26,4.26,0,0,1,5.6,1.76,154,154,0,0,0,13.62,20.59c14.27,18.24,33.27,24.95,48.64,22.76a4.2,4.2,0,0,1,4.37,2.26c28,54.41,106.65,54.41,134.7,0a4.2,4.2,0,0,1,4.37-2.26c15.37,2.19,34.37-4.52,48.63-22.76A153.08,153.08,0,0,0,371.9,370a4.25,4.25,0,0,1,5.59-1.76,131.42,131.42,0,0,1,23.76,15.05,4.24,4.24,0,0,1,.89,5.66c-10.76,16.29-14.13,38.56-4.89,56a4.24,4.24,0,0,1-3,6.18" style="fill: none"/>
    </clipPath>
    <linearGradient id="ax" x1="242.48" y1="470.47" x2="242.48" y2="260.49" xlink:href="#aj"/>
    <mask id="ay" x="98.67" y="368.47" width="287.63" height="64.31" maskUnits="userSpaceOnUse">
      <g transform="translate(4.56 0.43)">
        <rect x="94.1" y="368.04" width="287.63" height="64.31" style="fill: url(#c)"/>
      </g>
    </mask>
    <clipPath id="az" transform="translate(4.56 0.43)">
      <path d="M237.92,253.63A123.51,123.51,0,0,1,146.17,213a4.25,4.25,0,0,0-6.28,0C97.43,259.33,88,328.41,129.45,381.33c17.79,22.74,42.1,19.63,45.57,10.36,1.26-3.37-.07-8.18-5.29-13.95C151,357.11,140.94,333.8,141,306.46a3.64,3.64,0,0,1,5.26-3.25,4.46,4.46,0,0,1,.66.4,4.12,4.12,0,0,1,1.73,3.19,74.74,74.74,0,0,0,3.44,19.12,4.25,4.25,0,0,0,8,.28c13.29-33,41.63-58.48,77.83-58.48s64.54,25.48,77.83,58.48a4.24,4.24,0,0,0,8-.28,74.79,74.79,0,0,0,3.48-19.82,3.65,3.65,0,0,1,5.09-3.16,4.21,4.21,0,0,1,2.53,3.89c0,27.18-10.1,50.38-28.71,70.91-5.23,5.77-6.55,10.58-5.29,13.95,3.47,9.27,27.77,12.38,45.57-10.36,41.41-52.92,32-122-10.45-168.32a4.24,4.24,0,0,0-6.27,0,123.53,123.53,0,0,1-91.75,40.59" style="fill: none"/>
    </clipPath>
    <linearGradient id="ba" x1="242.48" y1="410.73" x2="242.48" y2="2.63" xlink:href="#aj"/>
    <mask id="bb" x="166.39" y="212.07" width="186.17" height="49.24" maskUnits="userSpaceOnUse">
      <g transform="translate(4.56 0.43)">
        <rect x="161.82" y="211.64" width="186.17" height="49.24" style="fill: url(#d)"/>
      </g>
    </mask>
    <mask id="bc" x="123.42" y="220.65" width="32.91" height="37.21" maskUnits="userSpaceOnUse">
      <g transform="translate(4.56 0.43)">
        <rect x="118.85" y="220.22" width="32.91" height="37.21" style="fill: url(#e)"/>
      </g>
    </mask>
    <mask id="bd" x="111.28" y="249.25" width="24.66" height="34.07" maskUnits="userSpaceOnUse">
      <g transform="translate(4.56 0.43)">
        <rect x="106.71" y="248.82" width="24.66" height="34.07" style="fill: url(#f)"/>
      </g>
    </mask>
    <mask id="be" x="328.64" y="220.65" width="32.91" height="37.21" maskUnits="userSpaceOnUse">
      <g transform="translate(4.56 0.43)">
        <rect x="324.08" y="220.22" width="32.91" height="37.21" style="fill: url(#g)"/>
      </g>
    </mask>
    <mask id="bf" x="349.02" y="249.25" width="24.66" height="34.07" maskUnits="userSpaceOnUse">
      <g transform="translate(4.56 0.43)">
        <rect x="344.46" y="248.82" width="24.66" height="34.07" style="fill: url(#h)"/>
      </g>
    </mask>
    <mask id="bg" x="36.01" y="417.62" width="31.22" height="26.42" maskUnits="userSpaceOnUse">
      <g transform="translate(4.56 0.43)">
        <rect x="31.44" y="417.19" width="31.22" height="26.42" style="fill: url(#i)"/>
      </g>
    </mask>
    <mask id="bh" x="31.73" y="387.51" width="11.77" height="14.83" maskUnits="userSpaceOnUse">
      <g transform="translate(4.56 0.43)">
        <rect x="27.17" y="387.08" width="11.77" height="14.83" style="fill: url(#j)"/>
      </g>
    </mask>
    <mask id="bi" x="46.86" y="392.39" width="11.41" height="15.1" maskUnits="userSpaceOnUse">
      <g transform="translate(4.56 0.43)">
        <rect x="42.29" y="391.96" width="11.41" height="15.1" style="fill: url(#k)"/>
      </g>
    </mask>
    <mask id="bj" x="22.65" y="402.46" width="11.77" height="14.83" maskUnits="userSpaceOnUse">
      <g transform="translate(4.56 0.43)">
        <rect x="18.08" y="402.03" width="11.77" height="14.83" style="fill: url(#l)"/>
      </g>
    </mask>
    <mask id="bk" x="417.74" y="417.62" width="31.22" height="26.42" maskUnits="userSpaceOnUse">
      <g transform="translate(4.56 0.43)">
        <rect x="413.17" y="417.19" width="31.22" height="26.42" style="fill: url(#n)"/>
      </g>
    </mask>
    <mask id="bl" x="441.47" y="387.51" width="11.77" height="14.83" maskUnits="userSpaceOnUse">
      <g transform="translate(4.56 0.43)">
        <rect x="436.9" y="387.08" width="11.77" height="14.83" style="fill: url(#o)"/>
      </g>
    </mask>
    <mask id="bm" x="426.7" y="392.39" width="11.41" height="15.1" maskUnits="userSpaceOnUse">
      <g transform="translate(4.56 0.43)">
        <rect x="422.13" y="391.96" width="11.41" height="15.1" style="fill: url(#p)"/>
      </g>
    </mask>
    <mask id="bn" x="450.55" y="402.46" width="11.77" height="14.83" maskUnits="userSpaceOnUse">
      <g transform="translate(4.56 0.43)">
        <rect x="445.99" y="402.03" width="11.77" height="14.83" style="fill: url(#q)"/>
      </g>
    </mask>
    <clipPath id="bo" transform="translate(4.56 0.43)">
      <path d="M237.92,196.72c11.13,0,21.26-11.63,25-22.67,1.23-3.65,5.47-3,13.47-10.91,3.27-3.24-1.19-8.42-5.54-5.35-7.9,5.55-26.55,8.47-25.4-.66.58-4.6.33-8.95,3.12-10.73,12.19-7.79,22.81-24.1-10.63-24.1s-22.82,16.31-10.63,24.1c2.79,1.78,2.54,6.13,3.12,10.73,1.16,9.22-18,6.31-26.21.06-3.69-2.82-8.3,2.48-4.37,6.31,7.76,7.55,11.9,7,13.11,10.55,3.72,11,13.85,22.67,25,22.67" style="fill: none"/>
    </clipPath>
    <linearGradient id="bp" x1="242.33" y1="531.94" x2="242.33" y2="-453.95" xlink:href="#ab"/>
    <mask id="bq" x="107.35" y="284.25" width="72.68" height="114.85" maskUnits="userSpaceOnUse">
      <g transform="translate(4.56 0.43)">
        <rect x="102.78" y="283.82" width="72.68" height="114.85" style="fill: url(#r)"/>
      </g>
    </mask>
    <mask id="br" x="304.94" y="284.25" width="72.68" height="114.85" maskUnits="userSpaceOnUse">
      <g transform="translate(4.56 0.43)">
        <rect x="300.37" y="283.82" width="72.68" height="114.85" style="fill: url(#s)"/>
      </g>
    </mask>
    <clipPath id="bs" transform="translate(4.56 0.43)">
      <path d="M272,121.54c9.27-5.73,25.12-5.39,33,.47,3.9,2.91,8.32-3,4.63-6.85-11.93-12.5-31.33-14.84-45.21-3.56-5.26,4.27,2.63,13,7.61,9.94" style="fill: none"/>
    </clipPath>
    <linearGradient id="bt" x1="290.76" y1="531.93" x2="290.76" y2="-453.94" xlink:href="#ab"/>
    <clipPath id="bu" transform="translate(4.56 0.43)">
      <path d="M237.91,188.54c-7.65,0-19.25-20.52,0-20.52s7.65,20.52,0,20.52" style="fill: none;clip-rule: evenodd"/>
    </clipPath>
    <linearGradient id="bv" x1="242.48" y1="172.19" x2="242.48" y2="187.05" gradientUnits="userSpaceOnUse">
      <stop offset="0" stop-color="#d1174c"/>
      <stop offset="1" stop-color="#e84170"/>
    </linearGradient>
    <clipPath id="bw" transform="translate(4.56 0.43)">
      <path d="M203.86,121.54c-9.27-5.73-25.12-5.39-33,.47-3.9,2.91-8.33-3-4.63-6.85,11.92-12.5,31.33-14.84,45.21-3.56,5.26,4.27-2.64,13-7.61,9.94" style="fill: none"/>
    </clipPath>
    <linearGradient id="bx" x1="194.21" y1="531.93" x2="194.21" y2="-453.94" xlink:href="#ab"/>
  </defs>
  <g>
    <g style="clip-path: url(#aa)">
      <rect width="484.97" height="479.71" style="fill: url(#ab)"/>
    </g>
    <g style="clip-path: url(#ac)">
      <rect x="121.51" y="16.56" width="36.79" height="53.56" style="fill: url(#ad)"/>
    </g>
    <g style="clip-path: url(#ae)">
      <rect x="326.67" y="16.56" width="36.79" height="53.56" style="fill: url(#af)"/>
    </g>
    <g style="clip-path: url(#ag)">
      <rect x="16.34" y="429.33" width="454.8" height="72.81" style="fill: url(#ah)"/>
    </g>
    <path d="M134.32,67.61c1.14-1.76,2.33-3.48,3.56-5.18-7-13-8.11-27.56-8-35.9-6.78-1.79-11.58.41-10.26,11.16a110.52,110.52,0,0,0,7.23,29.17,4.24,4.24,0,0,0,7.51.75" transform="translate(4.56 0.43)" style="fill: #f37121"/>
    <path d="M50.74,386.4C28.2,370.85,7.8,393.59,17.15,422.18c9.3,28.44,40.05,37,49.43,12.65,6.34-16.47-1.33-38.42-15.84-48.43" transform="translate(4.56 0.43)" style="fill: #ffedd6"/>
    <path d="M16.27,398c-2.06,6.81-2,15.19.88,24.15,9.21,28.15,39.41,36.81,49.12,13.39-33.67-4.06-49.1-23.11-50-37.54" transform="translate(4.56 0.43)" style="fill: #f7d9b2"/>
    <g style="clip-path: url(#ai)">
      <rect x="134.81" y="26.04" width="215.34" height="210.8" style="fill: url(#aj)"/>
    </g>
    <g style="mask: url(#ak)">
      <path d="M138.45,91.8a105.3,105.3,0,0,0-8.2,40.82c0,58.94,51.06,103.79,107.67,103.79a110.07,110.07,0,0,0,62.25-19.5C134.3,236.4,137.5,119.58,138.45,91.8" transform="translate(4.56 0.43)" style="fill: #c95b12"/>
    </g>
    <g style="mask: url(#al)">
      <path d="M237.92,25.61a108.82,108.82,0,0,0-11.9.66c1.43,22.42,6.21,38.91,11.9,38.91s10.47-16.49,11.89-38.91a108.63,108.63,0,0,0-11.89-.66" transform="translate(4.56 0.43)" style="fill: #be4e01"/>
    </g>
    <g style="mask: url(#am)">
      <path d="M214.64,28.16A107.57,107.57,0,0,0,192,35.91c9.72,21,20.56,35.21,26,33.07s3.66-19.32-3.33-40.82" transform="translate(4.56 0.43)" style="fill: #be4e01"/>
    </g>
    <g style="mask: url(#an)">
      <path d="M283.82,35.91a107.28,107.28,0,0,0-22.62-7.75c-7,21.5-8.64,38.73-3.33,40.82s16.23-12.05,25.95-33.07" transform="translate(4.56 0.43)" style="fill: #be4e01"/>
    </g>
    <path d="M138.16,171.54c16.47,38.67,56.5,64.87,99.76,64.87s83.29-26.2,99.76-64.87c-38.91-6.24-58.06-49.24-99.76-49.24s-60.86,43-99.76,49.24" transform="translate(4.56 0.43)" style="fill: #fff;fill-rule: evenodd"/>
    <g style="mask: url(#ao)">
      <path d="M259.32,135.07c-3.06,11.27-9,13.54-8.77,19.73.22,6.92,8.41,7.68,18.47,4l-7.49,9.08s-14.95,2.46-15.61,2.37-8.71-5.4-8-11.74,3.12-15.32,5.39-18.16,4.54-5.68,16-5.27m-43,0c3.06,11.27,9,13.54,8.77,19.73-.22,6.92-8.41,7.68-18.47,4l7.49,9.08s15,2.46,15.61,2.37,8.71-5.4,8.05-11.74-3.13-15.32-5.4-18.16S227.86,134.66,216.35,135.07Z" transform="translate(4.56 0.43)" style="fill: #ffedd6;fill-rule: evenodd"/>
    </g>
    <g style="mask: url(#ap)">
      <path d="M138.16,171.54c16.47,38.67,56.5,64.87,99.76,64.87a110.13,110.13,0,0,0,62.26-19.5c-79.23,16.76-128-17.42-146.56-50a65.37,65.37,0,0,1-15.46,4.59" transform="translate(4.56 0.43)" style="fill: #ffedd6"/>
    </g>
    <path d="M254.45,389.6l30,6.18a1.18,1.18,0,0,0,1.11-.34,1.21,1.21,0,0,0,.32-1.13c-.11-.47-.21-.94-.28-1.42a3,3,0,0,0-2.39-2.47L257.11,385a3,3,0,0,0-2.57.66,2.93,2.93,0,0,0-1.07,2.42v.34a1.21,1.21,0,0,0,1,1.15m1.78,11.51,30.53,6.29a3,3,0,0,0,3-4.8l0,0a2.91,2.91,0,0,0-1.81-1.14l-30.51-6.29a3,3,0,0,0-3.64,3.08v0A3,3,0,0,0,256.23,401.11Zm2.9,36.51a59,59,0,0,0,27.79-20.88,3,3,0,0,0-1.84-4.76l-27.24-5.61a3,3,0,0,0-3.65,3.07l.87,25.43a2.94,2.94,0,0,0,1.33,2.41A3,3,0,0,0,259.13,437.62ZM253,374l.09,2.89a3,3,0,0,0,2.42,2.87l27,5.57a3,3,0,0,0,3.55-2.23c1.27-5,4.13-10.27,8.85-15.49l.28-.3a4.16,4.16,0,0,0,.93-4.07,60.44,60.44,0,0,0-5.25-12.36,3,3,0,0,0-4.33-1l-32.23,21.52A3,3,0,0,0,253,374Zm-27.33,10.71L283.72,346a3,3,0,0,0,1.32-2.1,2.94,2.94,0,0,0-.69-2.38c-.71-.84-1.44-1.65-2.19-2.45a3,3,0,0,0-3.89-.44L220.78,377a3,3,0,0,0-1,4l1.51,2.7a2.94,2.94,0,0,0,1.94,1.46A2.9,2.9,0,0,0,225.66,384.73Zm3,12-.32-8-.68.46a3,3,0,0,0-1,4Zm10.3,13.6-1.42-25.49a1.2,1.2,0,0,0-.67-1,1.21,1.21,0,0,0-1.22.07l-1.2.8a3,3,0,0,0-1.35,2.64l.67,17.81a2.89,2.89,0,0,0,.39,1.37l2.52,4.48a1.22,1.22,0,0,0,1.41.58A1.23,1.23,0,0,0,239,410.31Zm11.12,19.8-1.68-49.18a3,3,0,0,0-4.71-2.42l-.18.11a3,3,0,0,0-1.34,2.69l2.38,43a2.9,2.9,0,0,0,.39,1.32l2.86,5.1a1.22,1.22,0,0,0,2.28-.64ZM235.12,347l26-17.33a3,3,0,0,0-.55-5.34,60.61,60.61,0,0,0-16.41-4,3,3,0,0,0-3,1.69l-10.38,21.16a3,3,0,0,0,4.41,3.86ZM216,374.27l0,.06,57.07-38.1a3,3,0,0,0,.07-5l-1.19-.83a3,3,0,0,0-3.39,0l-46.42,31a3,3,0,0,0-1,1.19L216,373.14A1.19,1.19,0,0,0,216,374.27ZM210.67,387l29.55,52.56a3,3,0,0,0,2.9,1.54h0a3,3,0,0,0,2.39-4.51L216,384a3,3,0,0,0-5.37.15v0A2.92,2.92,0,0,0,210.67,387Zm-5.7,9.89,24.35,43.3a1.19,1.19,0,0,0,1.16.62,3,3,0,0,0,2.37-4.51l-22.71-40.4a3,3,0,0,0-5.09-.32A1.2,1.2,0,0,0,205,396.89ZM193.9,422.73a59.13,59.13,0,0,0,22.16,14.65,3,3,0,0,0,3.71-4.33L204.9,406.59a3,3,0,0,0-2.73-1.54,3,3,0,0,0-2.64,1.7l-6.16,12.55A3,3,0,0,0,193.9,422.73Zm7.25-90.41a60.62,60.62,0,0,0-21.45,30.94,4.16,4.16,0,0,0,.93,4.07l.27.3q1.53,1.68,2.79,3.36a3,3,0,0,0,5.15-.49l16.87-34.43a3,3,0,0,0-4.56-3.75Zm20-10c-.91.26-1.82.54-2.71.84a3,3,0,0,0-1.75,1.54l-27,55.14a3,3,0,0,0-.19,2.2,24.74,24.74,0,0,1,.72,3,1.22,1.22,0,0,0,2.29.32L222.55,324a1.2,1.2,0,0,0-.17-1.32A1.17,1.17,0,0,0,221.12,322.31Zm10.21-2h0a2.94,2.94,0,0,0-2.39,1.68L186,409.6a2.94,2.94,0,0,0,.14,2.9v0a3,3,0,0,0,5.32-.24l42.95-87.63a3,3,0,0,0-3.06-4.35Z" transform="translate(4.56 0.43)" style="fill: #f03368;fill-rule: evenodd"/>
    <path d="M193.9,422.73a59.13,59.13,0,0,0,22.16,14.65,3,3,0,0,0,3.71-4.33L204.9,406.59a3,3,0,0,0-2.73-1.54,3,3,0,0,0-2.64,1.7l-6.16,12.55a3,3,0,0,0,.53,3.43m60.68-1.81a151.4,151.4,0,0,0,26,3.18,59,59,0,0,1-21.46,13.52,3,3,0,0,1-2.74-.34,2.94,2.94,0,0,1-1.33-2.41Zm-10.38-2.74c1.78.56,3.63,1.08,5.52,1.57l.35,10.36a1.22,1.22,0,0,1-2.28.64l-2.86-5.1a2.9,2.9,0,0,1-.39-1.32Zm-21.45-9.68a89,89,0,0,0,10,5.3l12.82,22.79a3,3,0,0,1-2.39,4.51h0a3,3,0,0,1-2.9-1.54Zm-16.67-13.81a75,75,0,0,0,7.35,7.06l19.42,34.55a3,3,0,0,1-2.37,4.51,1.19,1.19,0,0,1-1.16-.62L205,396.89a1.2,1.2,0,0,1,.08-1.31A3,3,0,0,1,206.08,394.69Zm-13.52-20.82c.83,1.88,1.75,3.77,2.78,5.66l-2.88,5.86a1.22,1.22,0,0,1-2.29-.32,24.74,24.74,0,0,0-.72-3,3,3,0,0,1,.19-2.2Zm-6.85-24.3a92.11,92.11,0,0,0,4.43,18.27l-1.3,2.66a3,3,0,0,1-5.15.49q-1.26-1.68-2.79-3.36l-.27-.3a4.16,4.16,0,0,1-.93-4.07A60.41,60.41,0,0,1,185.71,349.57Zm12.56,34.93L186,409.6a2.94,2.94,0,0,0,.14,2.9v0a3,3,0,0,0,5.32-.24l10.84-22.12C200.82,388.3,199.5,386.41,198.27,384.5Z" transform="translate(4.56 0.43)" style="fill: #d1174c;fill-rule: evenodd"/>
    <path d="M237.92,282.86c-25,0-45.2,15.18-57.59,36.24a4.25,4.25,0,0,0,6.52,5.29c28.49-25.91,73.66-25.91,102.15,0a4.24,4.24,0,0,0,6.51-5.29c-12.38-21.06-32.62-36.25-57.59-36.25" transform="translate(4.56 0.43)" style="fill: #ffedd6"/>
    <path d="M425.1,386.4c22.54-15.55,42.94,7.19,33.59,35.78-9.3,28.44-40.05,37-49.43,12.65-6.34-16.47,1.33-38.42,15.84-48.43" transform="translate(4.56 0.43)" style="fill: #ffedd6"/>
    <path d="M447.46,440.46c-13,12.38-31.32,12.21-38.2-5.63-5.15-13.37-1.07-30.34,8.41-41.61,0,0-7.12,34.82,29.79,47.24" transform="translate(4.56 0.43)" style="fill: #f7d9b2"/>
    <g style="clip-path: url(#aq)">
      <rect x="385.2" y="252.16" width="76.05" height="103.71" style="fill: url(#ar)"/>
    </g>
    <g style="mask: url(#as)">
      <path d="M442,263.85a25.58,25.58,0,0,1,12.87,19c1.79,12.64-10.25,24.07-17,22.05-3-.91-4.29-3.72-5.55-7.25,16.74-6.22,16.29-23.63,9.71-33.78" transform="translate(4.56 0.43)" style="fill: #c95b12"/>
    </g>
    <g style="mask: url(#at)">
      <path d="M384,354.65c-.17-.08-.35-.16-.51-.25a4.23,4.23,0,0,1-2.14-5.26,140.83,140.83,0,0,0,7.77-61.7h0s1.66,13.28,12.78,25.94c.49,13.7-1.36,29.88-13.17,40.61a4.18,4.18,0,0,1-4.73.66" transform="translate(4.56 0.43)" style="fill: #c95b12"/>
    </g>
    <g style="mask: url(#au)">
      <path d="M394,268.11a39.43,39.43,0,0,1,13.83-7.32c-.52,8.5-2.72,14.41-6.08,14.87-2.57.35-5.34-2.56-7.75-7.55" transform="translate(4.56 0.43)" style="fill: #be4e01"/>
    </g>
    <g style="mask: url(#av)">
      <path d="M414.88,259.22a47.55,47.55,0,0,1,15.44.32C428.64,266.4,426,271,423,271.4c-3.35.45-6.35-4.43-8.14-12.18" transform="translate(4.56 0.43)" style="fill: #be4e01"/>
    </g>
    <g style="clip-path: url(#aw)">
      <rect x="77.05" y="367.69" width="330.87" height="102.78" style="fill: url(#ax)"/>
    </g>
    <g style="mask: url(#ay)">
      <path d="M293.62,432.35a76.17,76.17,0,0,0,11.65-16.72,4.2,4.2,0,0,1,4.37-2.26c15.37,2.19,34.37-4.52,48.63-22.76A153.08,153.08,0,0,0,371.9,370a4.26,4.26,0,0,1,2.39-2c4.83,5.18,7.44,10.73,7.44,16.5,0,21.51-36.34,40-88.11,47.81M101.54,368a4.24,4.24,0,0,1,2.4,2,154,154,0,0,0,13.62,20.59c14.27,18.24,33.27,24.95,48.64,22.76a4.2,4.2,0,0,1,4.37,2.26,75.83,75.83,0,0,0,11.65,16.72c-51.77-7.85-88.12-26.3-88.12-47.81C94.1,378.77,96.72,373.22,101.54,368Z" transform="translate(4.56 0.43)" style="fill: #c95b12"/>
    </g>
    <g style="clip-path: url(#az)">
      <rect x="92.6" y="212.06" width="299.77" height="192.44" style="fill: url(#ba)"/>
    </g>
    <g style="mask: url(#bb)">
      <path d="M237.92,253.63a123.54,123.54,0,0,1-76.09-26.06h0C200.71,259,264.9,283.11,348,228a146.36,146.36,0,0,0-12.05-15,4.24,4.24,0,0,0-6.27,0,123.53,123.53,0,0,1-91.75,40.59" transform="translate(4.56 0.43)" style="fill: #c95b12"/>
    </g>
    <g style="mask: url(#bc)">
      <path d="M133.71,220.22a145.34,145.34,0,0,0-14.86,22.41c15.89,11.73,28.09,17.36,31.78,13.67,4-4-3-18.12-16.92-36.08" transform="translate(4.56 0.43)" style="fill: #be4e01"/>
    </g>
    <g style="mask: url(#bd)">
      <path d="M115.72,248.82a136.91,136.91,0,0,0-9,25c11.79,7.71,20.52,10.94,23.54,7.92C134,278,128,265.28,115.72,248.82" transform="translate(4.56 0.43)" style="fill: #be4e01"/>
    </g>
    <g style="mask: url(#be)">
      <path d="M357,242.63a145.34,145.34,0,0,0-14.86-22.41c-13.92,18-20.95,32.06-16.93,36.08,3.7,3.69,15.9-1.94,31.79-13.67" transform="translate(4.56 0.43)" style="fill: #be4e01"/>
    </g>
    <g style="mask: url(#bf)">
      <path d="M369.12,273.85a136.13,136.13,0,0,0-9-25C347.8,265.28,341.8,278,345.58,281.77c3,3,11.76-.21,23.54-7.92" transform="translate(4.56 0.43)" style="fill: #be4e01"/>
    </g>
    <g style="mask: url(#bg)">
      <path d="M45.68,417.29c8.59-.9,16.17,4.24,16.92,11.49S57,442.61,48.42,443.51,32.26,439.26,31.5,432s5.6-13.83,14.18-14.73" transform="translate(4.56 0.43)" style="fill: #c95b12"/>
    </g>
    <g style="mask: url(#bh)">
      <path d="M30.72,387.29c3-1,6.45,1.48,7.73,5.45s-.09,8-3.07,8.95-6.45-1.48-7.73-5.46.09-8,3.07-8.94" transform="translate(4.56 0.43)" style="fill: #c95b12"/>
    </g>
    <g style="mask: url(#bi)">
      <path d="M47.13,392c3.11-.36,6,2.72,6.51,6.87S52,406.66,48.87,407s-6-2.71-6.51-6.86S44,392.35,47.13,392" transform="translate(4.56 0.43)" style="fill: #c95b12"/>
    </g>
    <g style="mask: url(#bj)">
      <path d="M21.64,402.24c3-1,6.44,1.47,7.73,5.45s-.09,8-3.08,8.95-6.44-1.48-7.73-5.46.1-8,3.08-8.94" transform="translate(4.56 0.43)" style="fill: #c95b12"/>
    </g>
    <g style="mask: url(#bk)">
      <path d="M430.15,417.29c-8.59-.9-16.16,4.24-16.92,11.49s5.6,13.83,14.19,14.73,16.16-4.25,16.91-11.49-5.59-13.83-14.18-14.73" transform="translate(4.56 0.43)" style="fill: #be4e01"/>
    </g>
    <g style="mask: url(#bl)">
      <path d="M445.12,387.29c-3-1-6.45,1.48-7.73,5.45s.09,8,3.07,8.95,6.44-1.48,7.73-5.46-.09-8-3.07-8.94" transform="translate(4.56 0.43)" style="fill: #be4e01"/>
    </g>
    <g style="mask: url(#bm)">
      <path d="M428.71,392c-3.11-.36-6,2.72-6.51,6.87s1.65,7.81,4.77,8.17,6-2.71,6.51-6.86-1.65-7.81-4.77-8.18" transform="translate(4.56 0.43)" style="fill: #be4e01"/>
    </g>
    <g style="mask: url(#bn)">
      <path d="M454.2,402.24c-3-1-6.45,1.47-7.73,5.45s.09,8,3.07,8.95,6.45-1.48,7.73-5.46-.09-8-3.07-8.94" transform="translate(4.56 0.43)" style="fill: #be4e01"/>
    </g>
    <g style="clip-path: url(#bo)">
      <rect x="200.46" y="122.73" width="83.74" height="74.42" style="fill: url(#bp)"/>
    </g>
    <path d="M341.52,67.61c-1.14-1.76-2.33-3.48-3.56-5.18,7-13,8.11-27.56,8-35.9,6.78-1.79,11.57.41,10.26,11.16A110.52,110.52,0,0,1,349,66.86a4.24,4.24,0,0,1-7.51.75" transform="translate(4.56 0.43)" style="fill: #f37121"/>
    <g style="mask: url(#bq)">
      <path d="M104.6,283.82c-5.63,33,1.6,67.81,24.85,97.51,17.79,22.74,42.1,19.63,45.57,10.36,1.26-3.37-.07-8.18-5.29-13.95a127.45,127.45,0,0,1-8.88-10.89h0c-59.09,5.59-56.27-82.52-56.25-83" transform="translate(4.56 0.43)" style="fill: #c95b12"/>
    </g>
    <g style="mask: url(#br)">
      <path d="M371.24,283.82c5.63,33-1.6,67.81-24.85,97.51-17.8,22.74-42.1,19.63-45.57,10.36-1.26-3.37.06-8.18,5.29-13.95A125.43,125.43,0,0,0,315,366.85h0c59.1,5.59,56.27-82.52,56.26-83" transform="translate(4.56 0.43)" style="fill: #c95b12"/>
    </g>
    <g style="clip-path: url(#bs)">
      <rect x="263.67" y="100.75" width="54.17" height="24.6" style="fill: url(#bt)"/>
    </g>
    <g style="clip-path: url(#bu)">
      <rect x="223.23" y="168.45" width="38.5" height="20.52" style="fill: url(#bv)"/>
    </g>
    <g style="clip-path: url(#bw)">
      <rect x="167.13" y="100.75" width="54.17" height="24.6" style="fill: url(#bx)"/>
    </g>
  </g>
</svg>
